<svg width="35" height="35" viewBox="0 0 35 35" fill="none" xmlns="http://www.w3.org/2000/svg">
<circle cx="17.5" cy="17.5" r="13.6719" fill="white"/>
<path d="M15.3495 15.1409C15.3495 14.1018 14.6423 14.1018 14.6423 14.1018H14.2677H11.7335H11.7324V16.332H14.4619C14.9338 16.332 15.3495 16.1816 15.3495 15.1409Z" fill="black"/>
<path d="M22.0902 16.3318C20.547 16.3318 20.332 17.8718 20.332 17.8718H23.6149C23.6149 17.8718 23.6352 16.3318 22.0902 16.3318Z" fill="black"/>
<path d="M14.6427 17.8718H11.7344V20.5428H14.3107C14.3545 20.5428 14.419 20.545 14.4961 20.5428C14.9101 20.5335 15.697 20.4143 15.697 19.2445C15.697 17.8587 14.6427 17.8718 14.6427 17.8718Z" fill="black"/>
<path d="M17.4996 3.82812C10.0134 3.82812 3.92285 9.91867 3.92285 17.4048C3.92285 24.891 10.0134 30.9816 17.4996 30.9816C24.9857 30.9816 31.0763 24.891 31.0763 17.4048C31.0763 9.91867 24.9857 3.82812 17.4996 3.82812ZM19.9014 12.9145H24.0249V14.1455H19.9014V12.9145ZM17.8173 19.3698C17.8173 22.4197 14.6421 22.3196 14.6421 22.3196H11.7339H11.6486H9.44246V12.3255H11.6486H11.7339H14.6421C16.2232 12.3255 17.4706 13.1988 17.4706 14.9871C17.4706 16.7748 15.9459 16.8886 15.9459 16.8886C17.9557 16.8886 17.8173 19.3698 17.8173 19.3698ZM25.5304 19.2057H20.3515C20.3515 21.0629 22.1103 20.9453 22.1103 20.9453C23.7711 20.9453 23.7126 19.8707 23.7126 19.8707H25.4725C25.4725 22.7237 22.0523 22.528 22.0523 22.528C17.9491 22.528 18.2127 18.708 18.2127 18.708C18.2127 18.708 18.2094 14.8679 22.0523 14.8679C26.0975 14.8679 25.5299 19.2057 25.5304 19.2057Z" fill="black"/>
</svg>
