<svg width="35" height="35" viewBox="0 0 35 35" fill="none" xmlns="http://www.w3.org/2000/svg">
<g clip-path="url(#clip0_503:885)">
<circle cx="17.5" cy="17.5" r="14.2188" fill="white"/>
<path fill-rule="evenodd" clip-rule="evenodd" d="M3.28125 17.5C3.28125 9.64722 9.64722 3.28125 17.5 3.28125C25.3528 3.28125 31.7188 9.64722 31.7188 17.5C31.7188 25.3528 25.3528 31.7188 17.5 31.7188C9.64722 31.7188 3.28125 25.3528 3.28125 17.5ZM17.5007 9.91667C15.4412 9.91667 15.1827 9.92567 14.3738 9.96246C13.5665 9.99943 13.0155 10.1273 12.5333 10.3148C12.0345 10.5085 11.6114 10.7676 11.1899 11.1892C10.7681 11.6108 10.5089 12.0338 10.3146 12.5324C10.1266 13.0148 9.99866 13.566 9.96234 14.373C9.92615 15.1819 9.91667 15.4405 9.91667 17.5001C9.91667 19.5596 9.92585 19.8173 9.96246 20.6262C9.99961 21.4335 10.1274 21.9845 10.3148 22.4667C10.5086 22.9655 10.7677 23.3886 11.1894 23.8101C11.6108 24.2319 12.0338 24.4917 12.5323 24.6854C13.0148 24.8729 13.566 25.0007 14.3732 25.0377C15.1821 25.0745 15.4404 25.0835 17.4998 25.0835C19.5595 25.0835 19.8171 25.0745 20.6261 25.0377C21.4333 25.0007 21.985 24.8729 22.4676 24.6854C22.9662 24.4917 23.3886 24.2319 23.8099 23.8101C24.2318 23.3886 24.4909 22.9655 24.6852 22.4669C24.8717 21.9845 24.9996 21.4333 25.0375 20.6263C25.0739 19.8174 25.0833 19.5596 25.0833 17.5001C25.0833 15.4405 25.0739 15.1821 25.0375 14.3732C24.9996 13.5659 24.8717 13.0148 24.6852 12.5326C24.4909 12.0338 24.2318 11.6108 23.8099 11.1892C23.3881 10.7674 22.9663 10.5083 22.4671 10.3148C21.9836 10.1273 21.4323 9.99943 20.6249 9.96246C19.816 9.92567 19.5585 9.91667 17.4983 9.91667H17.5007Z" fill="black"/>
<path fill-rule="evenodd" clip-rule="evenodd" d="M16.8207 11.2834C17.0226 11.2831 17.2479 11.2834 17.501 11.2834C19.5257 11.2834 19.7657 11.2907 20.5653 11.327C21.3047 11.3608 21.706 11.4843 21.9733 11.5881C22.3272 11.7256 22.5795 11.8899 22.8447 12.1553C23.1102 12.4207 23.2745 12.6735 23.4122 13.0274C23.516 13.2944 23.6397 13.6957 23.6734 14.4351C23.7097 15.2345 23.7177 15.4747 23.7177 17.4985C23.7177 19.5223 23.7097 19.7624 23.6734 20.5618C23.6396 21.3012 23.516 21.7025 23.4122 21.9695C23.2748 22.3234 23.1102 22.5754 22.8447 22.8407C22.5793 23.1061 22.3274 23.2704 21.9733 23.4078C21.7063 23.5121 21.3047 23.6353 20.5653 23.6692C19.7659 23.7055 19.5257 23.7134 17.501 23.7134C15.476 23.7134 15.236 23.7055 14.4367 23.6692C13.6973 23.635 13.296 23.5115 13.0285 23.4077C12.6746 23.2702 12.4218 23.1059 12.1564 22.8405C11.891 22.5751 11.7267 22.3229 11.5889 21.9689C11.4851 21.7019 11.3614 21.3006 11.3278 20.5612C11.2914 19.7618 11.2842 19.5217 11.2842 17.4966C11.2842 15.4715 11.2914 15.2326 11.3278 14.4332C11.3616 13.6938 11.4851 13.2925 11.5889 13.0252C11.7264 12.6713 11.891 12.4185 12.1564 12.1531C12.4218 11.8877 12.6746 11.7234 13.0285 11.5856C13.2958 11.4813 13.6973 11.3581 14.4367 11.3242C15.1362 11.2926 15.4073 11.2831 16.8207 11.2815V11.2834ZM21.5489 12.5425C21.0465 12.5425 20.6389 12.9497 20.6389 13.4522C20.6389 13.9546 21.0465 14.3622 21.5489 14.3622C22.0513 14.3622 22.4589 13.9546 22.4589 13.4522C22.4589 12.9498 22.0513 12.5425 21.5489 12.5425ZM17.501 13.6058C15.3503 13.6058 13.6066 15.3495 13.6066 17.5002C13.6066 19.6509 15.3503 21.3938 17.501 21.3938C19.6517 21.3938 21.3947 19.6509 21.3947 17.5002C21.3947 15.3495 19.6517 13.6058 17.501 13.6058Z" fill="black"/>
<path fill-rule="evenodd" clip-rule="evenodd" d="M17.5005 14.9724C18.8964 14.9724 20.0282 16.1041 20.0282 17.5002C20.0282 18.8962 18.8964 20.028 17.5005 20.028C16.1043 20.028 14.9727 18.8962 14.9727 17.5002C14.9727 16.1041 16.1043 14.9724 17.5005 14.9724Z" fill="black"/>
</g>
<defs>
<clipPath id="clip0_503:885">
<rect width="28.4375" height="28.4375" fill="white" transform="translate(3.28125 3.28125)"/>
</clipPath>
</defs>
</svg>
