<svg width="35" height="35" viewBox="0 0 35 35" fill="none" xmlns="http://www.w3.org/2000/svg">
<circle cx="17.5" cy="17.5" r="13.6719" fill="white"/>
<path d="M17.4997 3.28125C9.74074 3.28125 3.45117 9.57493 3.45117 17.3381C3.45117 25.1011 9.74099 31.395 17.4997 31.395C25.2584 31.395 31.5485 25.1011 31.5485 17.3381C31.5485 9.57493 25.2584 3.28125 17.4997 3.28125ZM24.1908 15.7194C24.0237 17.72 22.5611 20.0543 21.21 20.7212C19.8584 21.3882 18.414 21.3882 17.5811 20.9806C17.5811 20.9806 16.5072 20.3321 16.3592 20.1466C16.2667 20.2208 15.9703 22.0549 15.526 23.2033C15.0817 24.3517 14.4708 25.4819 13.6004 26.0006C13.2859 24.9633 13.4894 22.4068 14.1003 20.1466C14.7118 17.8867 14.9523 16.8306 14.9523 16.8306C14.9523 16.8306 14.1747 15.3485 14.9338 13.7185C15.6929 12.0884 17.1183 12.4588 17.3962 12.7181C17.6741 12.9775 18.1738 13.1811 17.7664 14.8485C17.3591 16.5159 16.674 18.146 17.248 19.0354C17.5995 19.5356 19.4698 19.943 20.5247 18.5352C21.3766 17.1087 21.7102 16.4605 21.7471 14.2187C21.7471 14.2187 21.7869 10.6223 18.5807 10.4028C15.8778 10.2173 14.6294 11.3728 13.8042 12.181C12.9341 13.0331 12.2863 15.3669 13.1007 16.6639C13.5081 17.238 13.5266 17.5715 13.471 17.9049C13.4153 18.2384 13.1561 18.7386 13.1561 18.7386C13.1561 18.7386 10.8606 18.3312 10.7496 15.5152C10.6383 12.6994 11.9527 11.0877 13.1192 10.1986C14.2859 9.30951 16.3099 8.17323 20.309 8.91431C22.9502 9.63108 24.6164 11.9034 24.1908 15.7194Z" fill="black"/>
</svg>
