<svg width="330" height="98" viewBox="0 0 330 98" fill="none" xmlns="http://www.w3.org/2000/svg">
<path fill-rule="evenodd" clip-rule="evenodd" d="M54.73 0H88.63V95H54.73V62.63H34.03V95H0V0H34.03V32.37H54.73V0ZM56.73 34.37H32.03V2H2V93H32.03V60.63H56.73V93H86.63V2H56.73V34.37ZM104.889 0H177.789V27.66H138.919V34.19H173.109V60.29H138.919V67.08H178.569V95H104.889V0ZM136.919 69.08V58.29H171.109V36.19H136.919V25.66H175.789V2H106.889V93H176.569V69.08H136.919ZM253.198 95H219.428V62.4656L183.385 0H222.068L236.378 31.6016L250.688 0H289.377L253.198 62.4674V95ZM236.378 36.45L220.778 2H186.848L221.428 61.93V93H251.198V61.93L285.908 2H251.978L236.378 36.45ZM325.229 59.25H298.438L295.093 0H328.575L325.229 59.25ZM299.67 92.8221L299.658 92.8123C296.261 89.8271 294.689 85.5757 294.689 80.39C294.689 75.2044 296.261 70.9529 299.658 67.9677L299.67 67.9579L299.681 67.9483C303.033 65.0892 307.15 63.7 311.899 63.7C316.641 63.7 320.725 65.0862 323.998 67.9583C327.483 70.9373 329.109 75.1908 329.109 80.39C329.109 85.5892 327.483 89.8427 323.998 92.8217C320.725 95.6938 316.641 97.08 311.899 97.08C307.15 97.08 303.033 95.6908 299.681 92.8317L299.67 92.8221ZM322.689 91.31C325.635 88.7967 327.109 85.1567 327.109 80.39C327.109 75.6233 325.635 71.9833 322.689 69.47C319.829 66.9567 316.232 65.7 311.899 65.7C307.565 65.7 303.925 66.9567 300.979 69.47C298.119 71.9833 296.689 75.6233 296.689 80.39C296.689 85.1567 298.119 88.7967 300.979 91.31C303.925 93.8233 307.565 95.08 311.899 95.08C316.232 95.08 319.829 93.8233 322.689 91.31ZM323.339 57.25H300.329L297.209 2H326.459L323.339 57.25Z" fill="#2D2D2D"/>
</svg>
