<svg width="121" height="21" viewBox="0 0 121 21" fill="none" xmlns="http://www.w3.org/2000/svg">
<path d="M6.53 21H0.98V-1.43051e-06H6.53V7.95H9.17L13.94 -1.43051e-06H20.09L13.49 10.23L20.39 21H14.24L9.14 12.9H6.53V21ZM22.1616 -1.43051e-06H37.2816V4.8H27.7116V8.01H36.3816V12.78H27.7116V16.2H37.4616V21H22.1616V-1.43051e-06ZM46.2273 21H40.6773V-1.43051e-06H49.5273C50.6673 -1.43051e-06 51.7173 0.119999 52.6773 0.359999C53.6573 0.579999 54.5673 0.949999 55.4073 1.47C56.2673 1.97 56.9373 2.7 57.4173 3.66C57.8973 4.62 58.1373 5.76 58.1373 7.08C58.1373 10.2 56.7973 12.3 54.1173 13.38L59.9073 21H53.6373L48.6273 14.16H46.2273V21ZM46.2273 4.8V9.66H49.7673C50.5873 9.66 51.2373 9.45 51.7173 9.03C52.1973 8.61 52.4373 8.01 52.4373 7.23C52.4373 6.45 52.1973 5.85 51.7173 5.43C51.2373 5.01 50.5873 4.8 49.7673 4.8H46.2273ZM62.0054 -1.43051e-06H71.4854C73.8454 -1.43051e-06 75.6554 0.439999 76.9154 1.32C78.1954 2.2 78.8354 3.53 78.8354 5.31C78.8354 7.61 77.7954 9.13 75.7154 9.87C78.3554 10.65 79.6754 12.38 79.6754 15.06C79.6754 16.2 79.4254 17.18 78.9254 18C78.4254 18.8 77.7354 19.41 76.8554 19.83C75.9954 20.25 75.0954 20.55 74.1554 20.73C73.2354 20.91 72.2254 21 71.1254 21H62.0054V-1.43051e-06ZM71.3054 16.65C73.1654 16.65 74.0954 15.92 74.0954 14.46C74.0954 13 73.1654 12.27 71.3054 12.27H67.5254V16.65H71.3054ZM72.6554 7.74C73.0754 7.38 73.2854 6.9 73.2854 6.3C73.2854 5.7 73.0754 5.23 72.6554 4.89C72.2554 4.53 71.6954 4.35 70.9754 4.35H67.5554V8.22L70.9754 8.25C71.6954 8.25 72.2554 8.08 72.6554 7.74ZM82.5132 -1.43051e-06H97.6332V4.8H88.0632V8.01H96.7332V12.78H88.0632V16.2H97.8132V21H82.5132V-1.43051e-06ZM106.579 21H101.029V-1.43051e-06H109.879C111.019 -1.43051e-06 112.069 0.119999 113.029 0.359999C114.009 0.579999 114.919 0.949999 115.759 1.47C116.619 1.97 117.289 2.7 117.769 3.66C118.249 4.62 118.489 5.76 118.489 7.08C118.489 10.2 117.149 12.3 114.469 13.38L120.259 21H113.989L108.979 14.16H106.579V21ZM106.579 4.8V9.66H110.119C110.939 9.66 111.589 9.45 112.069 9.03C112.549 8.61 112.789 8.01 112.789 7.23C112.789 6.45 112.549 5.85 112.069 5.43C111.589 5.01 110.939 4.8 110.119 4.8H106.579Z" fill="white"/>
</svg>
