<svg width="140" height="25" viewBox="0 0 140 25" fill="none" xmlns="http://www.w3.org/2000/svg">
<path d="M6.785 25V15.55H9.83L15.78 25H22.955L14.905 12.435L22.605 0.499998H15.43L9.865 9.775H6.785V0.499998H0.31V25H6.785ZM25.0219 0.499998V25H42.8719V19.4H31.4969V15.41H41.6119V9.845H31.4969V6.1H42.6619V0.499998H25.0219ZM53.0985 25V17.02H55.8985L61.7435 25H69.0585L62.3035 16.11C64.9985 15.025 66.9935 12.82 66.9935 8.76C66.9935 2.285 61.9185 0.499998 56.9485 0.499998H46.6235V25H53.0985ZM53.0985 6.1H57.2285C59.0835 6.1 60.3435 7.045 60.3435 8.935C60.3435 10.825 59.0835 11.77 57.2285 11.77H53.0985V6.1ZM71.5063 0.499998V25H82.1463C86.8013 25 92.1213 23.635 92.1213 18.07C92.1213 14.675 90.1263 12.785 87.5013 12.015C89.8463 11.175 91.1413 9.39 91.1413 6.695C91.1413 2.46 87.9213 0.499998 82.5663 0.499998H71.5063ZM85.6113 17.37C85.6113 19.295 84.3163 19.925 82.3563 19.925H77.9463V14.815H82.3563C84.3163 14.815 85.6113 15.445 85.6113 17.37ZM84.6663 7.85C84.6663 9.25 83.6863 10.125 81.9713 10.125L77.9813 10.09V5.575H81.9713C83.6863 5.575 84.6663 6.45 84.6663 7.85ZM95.4321 0.499998V25H113.282V19.4H101.907V15.41H112.022V9.845H101.907V6.1H113.072V0.499998H95.4321ZM123.509 25V17.02H126.309L132.154 25H139.469L132.714 16.11C135.409 15.025 137.404 12.82 137.404 8.76C137.404 2.285 132.329 0.499998 127.359 0.499998H117.034V25H123.509ZM123.509 6.1H127.639C129.494 6.1 130.754 7.045 130.754 8.935C130.754 10.825 129.494 11.77 127.639 11.77H123.509V6.1Z" fill="#2D2D2D"/>
</svg>
