<svg width="139" height="139" viewBox="0 0 139 139" fill="none" xmlns="http://www.w3.org/2000/svg">
<path d="M9.09077 63.8885C8.43885 64.0548 7.76471 64.1052 7.06835 64.0398C6.37199 63.9743 5.72205 63.7994 5.11855 63.5152C4.5161 63.2211 3.98793 62.835 3.53403 62.3571C3.07033 61.8781 2.72924 61.2723 2.51078 60.5394C2.28251 59.8056 2.21521 59.0028 2.30888 58.1311C2.40255 57.2593 2.63877 56.49 3.01754 55.8232C3.38756 55.1456 3.85072 54.6153 4.40704 54.2323C4.95461 53.8385 5.55435 53.5585 6.20626 53.3922C6.85923 53.2162 7.5339 53.1609 8.23026 53.2263C8.92662 53.2918 9.57603 53.4715 10.1785 53.7656C10.782 54.0499 11.3151 54.4364 11.7777 54.9251C12.2316 55.4031 12.5727 56.009 12.801 56.7428C13.0205 57.4659 13.0834 58.2633 12.9897 59.135C12.8961 60.0068 12.6642 60.7814 12.2942 61.459C11.9144 62.1356 11.4512 62.6659 10.9047 63.0499C10.3484 63.4329 9.74373 63.7125 9.09077 63.8885ZM10.6205 56.152C9.96418 55.4373 9.10639 55.0302 8.04713 54.9306C6.98787 54.831 6.06062 55.0704 5.26537 55.6486C4.47118 56.2171 4.0104 57.0939 3.88306 58.279C3.75676 59.4544 4.02178 60.3994 4.6781 61.1141C5.33443 61.8288 6.19222 62.2359 7.25148 62.3355C8.31073 62.435 9.23799 62.1957 10.0332 61.6175C10.8285 61.0392 11.2893 60.1624 11.4156 58.9871C11.5429 57.8019 11.2779 56.8569 10.6205 56.152Z" fill="#FECF00"/>
<path d="M8.17188 49.812L8.95092 47.3927C9.76014 44.8797 11.1841 43.9103 13.2228 44.4846C15.2424 45.0535 15.8477 46.5945 15.0385 49.1076L13.7431 53.1303L3.78683 50.3257L6.04693 43.307L7.54037 43.7277L5.79661 49.1429L8.17188 49.812ZM12.7802 51.1101L13.5683 48.6627C13.6649 48.3627 13.729 48.0995 13.7605 47.8731C13.7951 47.6374 13.7996 47.3983 13.7743 47.1559C13.7424 46.9015 13.6356 46.6873 13.4537 46.5134C13.2719 46.3394 13.0197 46.207 12.6974 46.1162C12.3655 46.0227 12.0709 46.0062 11.8135 46.0667C11.5592 46.1178 11.3452 46.2364 11.1714 46.4227C10.9977 46.609 10.8556 46.8094 10.7452 47.0237C10.6378 47.2287 10.5358 47.4812 10.4392 47.7813L9.6511 50.2287L12.7802 51.1101Z" fill="#FECF00"/>
<path d="M12.1317 42.318C11.329 41.9416 10.681 41.4638 10.1878 40.8848C9.69459 40.3058 9.37513 39.6942 9.2294 39.05C9.07476 38.4016 9.04615 37.7471 9.14358 37.0866C9.24101 36.426 9.45497 35.7876 9.78546 35.1711C10.2835 34.2422 10.9518 33.4745 11.7903 32.8682L13.2753 33.5647C12.4624 33.9983 11.8116 34.6709 11.3229 35.5825C10.8062 36.5462 10.6581 37.5199 10.8786 38.5034C11.0991 39.4869 11.7868 40.2549 12.9416 40.8074C13.673 41.1504 14.3995 41.263 15.1212 41.1451C15.8429 41.0273 16.4617 40.7579 16.9776 40.3371C17.4934 39.9162 17.9142 39.4019 18.2401 38.7942C18.7614 37.8218 18.9465 36.9145 18.7954 36.0721L20.3072 36.7812C20.2799 37.7897 20.0125 38.7672 19.5052 39.7135C19.1793 40.3212 18.767 40.8613 18.2682 41.3336C17.7605 41.8017 17.1892 42.1802 16.5544 42.4692C15.9195 42.7581 15.2154 42.8951 14.4421 42.8801C13.6689 42.8651 12.8987 42.6778 12.1317 42.318Z" fill="#FECF00"/>
<path d="M23.2379 30.4287C24.1589 32.0017 24.1823 33.3531 23.3083 34.4829C23.025 34.8491 22.6583 35.1945 22.2083 35.5191L20.9723 34.6826C21.3134 34.4505 21.6106 34.1708 21.8638 33.8436C22.3761 33.1813 22.4317 32.4829 22.0304 31.7483L21.8298 31.3811L13.0819 30.5178L14.2302 29.0335L21.0693 29.8336L17.7928 24.4287L18.914 22.9794L23.2379 30.4287Z" fill="#FECF00"/>
<path d="M29.0415 30.7919L27.894 31.8141L25.1212 29.0911L26.048 28.2654C25.438 26.1235 23.7554 23.6996 21.0002 20.9938L25.9765 16.5611L32.2601 22.7318L33.2421 21.8571L36.0149 24.5801L34.8674 25.6023L33.1911 23.956L27.3652 29.1456L29.0415 30.7919ZM23.343 20.9802C25.5783 23.4646 26.936 25.4868 27.4162 27.0467L31.0022 23.8523L25.8256 18.7687L23.343 20.9802Z" fill="#FECF00"/>
<path d="M42.9907 17.9766L41.5369 18.8275L37.9541 13.4729C37.6693 13.0472 37.4654 12.7336 37.3424 12.5321L36.7418 21.6342L35.3773 22.4328L29.6252 13.836L31.079 12.985L34.6535 18.3274C34.9438 18.7613 35.1505 19.079 35.2735 19.2805L35.8741 10.1784L37.2386 9.37974L42.9907 17.9766Z" fill="#FECF00"/>
<path d="M50.3601 4.32224L51.8024 3.83616L55.521 13.4883L53.9247 14.0263L51.3217 7.26981L49.9907 12.8907L49.0385 13.2116L44.1749 9.66283L46.7832 16.4332L45.1869 16.9711L41.4683 7.31895L42.9106 6.83287L48.7656 11.1069L50.3601 4.32224Z" fill="#FECF00"/>
<path d="M59.5616 2.4147L63.9223 2.07402C65.0223 1.98809 65.9062 2.14134 66.5742 2.53378C67.2422 2.92622 67.6143 3.54926 67.6906 4.40292C67.7432 4.99165 67.6347 5.49414 67.3653 5.91041C67.0951 6.31687 66.7308 6.61211 66.2725 6.79612C66.8463 6.90938 67.3485 7.16162 67.779 7.55285C68.2185 7.9335 68.4707 8.48688 68.5355 9.21297C68.5846 9.76245 68.5043 10.2479 68.2947 10.6694C68.0843 11.0811 67.7815 11.4011 67.3866 11.6296C66.9916 11.8581 66.5869 12.033 66.1725 12.1543C65.767 12.265 65.3335 12.3384 64.8719 12.3744L60.4818 12.7174L59.5616 2.4147ZM66.8109 9.16986C66.7171 8.11996 65.9582 7.65064 64.5341 7.7619L61.7498 7.97943L62.0297 11.1144L64.5784 10.9153C64.9221 10.8884 65.2105 10.8511 65.4436 10.8032C65.6767 10.7554 65.9116 10.6728 66.1484 10.5555C66.395 10.4374 66.5725 10.2655 66.6809 10.0396C66.7982 9.80321 66.8415 9.51329 66.8109 9.16986ZM66.0053 4.80135C65.9212 3.85939 65.2113 3.44058 63.8756 3.54493L61.3712 3.74059L61.6223 6.55176L64.3637 6.35241C64.8842 6.31174 65.296 6.161 65.5991 5.90019C65.912 5.63861 66.0474 5.27233 66.0053 4.80135Z" fill="#FECF00"/>
<path d="M71.3279 12.1148L69.5477 11.949L74.9975 2.0689L76.8367 2.24015L80.0822 12.9299L78.3167 12.7655L77.6406 10.4618L72.4763 9.98097L71.3279 12.1148ZM75.4839 4.3401L73.2065 8.56502L77.2085 8.93766L75.8664 4.37572C75.8109 4.1529 75.7675 3.95595 75.7362 3.78485C75.6694 3.94681 75.5853 4.1319 75.4839 4.3401Z" fill="#FECF00"/>
<path d="M93.3034 16.7169L80.7896 12.8185L84.2597 3.07426L85.8681 3.57529L82.9234 11.844L86.7749 13.0439L89.7195 4.77514L91.3279 5.27617L88.3832 13.5449L92.2206 14.7403L95.1652 6.47162L96.7736 6.97266L93.3034 16.7169Z" fill="#FECF00"/>
<path d="M99.4018 19.8894L97.9965 18.9606L104.232 10.7077L111.481 15.4986L105.245 23.7515L103.84 22.8226L109.14 15.8077L104.702 12.8745L99.4018 19.8894Z" fill="#FECF00"/>
<path d="M115.005 18.3201L117.672 20.8762C119.798 22.9143 120.025 24.697 118.352 26.2245C116.678 27.752 114.778 27.4967 112.651 25.4587L111.201 24.0682L108.581 26.459L107.365 25.2934L115.005 18.3201ZM115.521 25.534C116.067 25.6752 116.597 25.51 117.114 25.0385C117.631 24.567 117.816 24.078 117.671 23.5715C117.541 23.0652 117.184 22.5325 116.601 21.9736L115.086 20.5217L112.336 23.0321L113.851 24.484C114.434 25.0429 114.991 25.3929 115.521 25.534Z" fill="#FECF00"/>
<path d="M116.332 29.4238C116.734 28.9046 117.231 28.4591 117.823 28.0874C118.416 27.7156 119.045 27.4543 119.711 27.3033C120.383 27.1603 121.058 27.1314 121.736 27.2166C122.423 27.2965 123.098 27.5461 123.762 27.9654C124.434 28.3794 125.025 28.9426 125.536 29.6551C126.047 30.3675 126.377 31.089 126.526 31.8197C126.69 32.5531 126.68 33.2321 126.499 33.8566C126.332 34.4838 126.047 35.057 125.645 35.5763C125.249 36.1035 124.755 36.553 124.162 36.9247C123.57 37.2965 122.938 37.5538 122.266 37.6968C121.6 37.8478 120.921 37.8793 120.228 37.7914C119.55 37.7062 118.875 37.4566 118.203 37.0426C117.545 36.6313 116.96 36.0695 116.449 35.357C115.938 34.6446 115.601 33.9217 115.438 33.1882C115.283 32.4496 115.293 31.7706 115.465 31.1514C115.647 30.5269 115.935 29.9511 116.332 29.4238ZM120.317 36.1688C121.313 36.3097 122.262 36.0974 123.163 35.5319C124.064 34.9664 124.634 34.2258 124.873 33.31C125.117 32.4022 124.892 31.464 124.197 30.4954C123.508 29.5349 122.665 28.9841 121.669 28.8433C120.673 28.7024 119.724 28.9147 118.822 29.4802C117.921 30.0457 117.351 30.7863 117.113 31.7021C116.874 32.6179 117.1 33.5561 117.789 34.5167C118.483 35.4852 119.326 36.036 120.317 36.1688Z" fill="#FECF00"/>
<path d="M129.715 36.5374L132.714 42.9978L131.29 43.5759L129 38.6435L126.385 39.7053L128.488 44.2356L127.064 44.8138L124.961 40.2835L122.264 41.3786L124.591 46.3915L123.167 46.9696L120.131 40.4288L129.715 36.5374Z" fill="#FECF00"/>
<path d="M124.202 50.0338L123.782 48.4025L133.872 46.128L134.293 47.7593L130.084 48.7081L130.592 50.6828L135.521 52.5243L135.996 54.3702L130.225 52.1585L125.972 56.9023L125.496 55.0564L129.086 51.0526L128.57 49.0493L124.202 50.0338Z" fill="#FECF00"/>
<path d="M136.294 56.2456L136.882 64.7515L135.334 64.8452L135.098 61.4399L126.322 61.9712L126.205 60.2907L134.982 59.7594L134.745 56.3394L136.294 56.2456Z" fill="#FECF00"/>
<path d="M129.685 74.8765C130.337 74.7102 131.011 74.6598 131.707 74.7252C132.403 74.7907 133.053 74.9655 133.657 75.2498C134.259 75.5439 134.787 75.9299 135.241 76.4079C135.705 76.8868 136.046 77.4927 136.265 78.2256C136.493 78.9594 136.56 79.7622 136.466 80.6339C136.373 81.5056 136.137 82.2749 135.758 82.9418C135.388 83.6194 134.925 84.1497 134.368 84.5327C133.821 84.9264 133.221 85.2065 132.569 85.3727C131.916 85.5488 131.241 85.6041 130.545 85.5387C129.849 85.4732 129.199 85.2935 128.597 84.9994C127.993 84.7151 127.46 84.3286 126.998 83.8399C126.544 83.3619 126.203 82.756 125.974 82.0222C125.755 81.2991 125.692 80.5017 125.786 79.63C125.879 78.7583 126.111 77.9836 126.481 77.306C126.861 76.6294 127.324 76.0991 127.871 75.7151C128.427 75.3321 129.032 75.0525 129.685 74.8765ZM128.155 82.613C128.811 83.3277 129.669 83.7348 130.728 83.8344C131.787 83.9339 132.715 83.6946 133.51 83.1164C134.304 82.5479 134.765 81.6711 134.892 80.4859C135.019 79.3106 134.754 78.3656 134.097 77.6509C133.441 76.9362 132.583 76.5291 131.524 76.4295C130.465 76.33 129.537 76.5693 128.742 77.1475C127.947 77.7258 127.486 78.6026 127.36 79.778C127.232 80.9631 127.497 81.9081 128.155 82.613Z" fill="#FECF00"/>
<path d="M130.602 88.9552L129.822 91.3745C129.013 93.8875 127.589 94.8569 125.551 94.2826C123.531 93.7137 122.926 92.1728 123.735 89.6597L125.03 85.637L134.987 88.4415L132.726 95.4602L131.233 95.0395L132.977 89.6243L130.602 88.9552ZM125.993 87.6571L125.205 90.1045C125.108 90.4046 125.044 90.6678 125.013 90.8942C124.978 91.1299 124.974 91.3689 124.999 91.6113C125.031 91.8657 125.138 92.0799 125.32 92.2539C125.501 92.4278 125.754 92.5602 126.076 92.651C126.408 92.7445 126.702 92.761 126.96 92.7006C127.214 92.6495 127.428 92.5308 127.602 92.3445C127.776 92.1582 127.918 91.9579 128.028 91.7435C128.136 91.5385 128.238 91.286 128.334 90.9859L129.122 88.5386L125.993 87.6571Z" fill="#FECF00"/>
<path d="M126.625 96.4717C127.428 96.8482 128.076 97.3259 128.569 97.9049C129.062 98.4839 129.382 99.0955 129.527 99.7397C129.682 100.388 129.711 101.043 129.613 101.703C129.516 102.364 129.302 103.002 128.971 103.619C128.473 104.548 127.805 105.315 126.966 105.921L125.481 105.225C126.294 104.791 126.945 104.119 127.434 103.207C127.951 102.243 128.099 101.27 127.878 100.286C127.658 99.3028 126.97 98.5349 125.815 97.9824C125.084 97.6394 124.357 97.5268 123.636 97.6447C122.914 97.7625 122.295 98.0319 121.779 98.4527C121.263 98.8735 120.842 99.3878 120.517 99.9956C119.995 100.968 119.81 101.875 119.961 102.718L118.449 102.009C118.477 101 118.744 100.023 119.252 99.0763C119.577 98.4686 119.99 97.9285 120.488 97.4562C120.996 96.9881 121.567 96.6096 122.202 96.3206C122.837 96.0317 123.541 95.8947 124.315 95.9096C125.088 95.9246 125.858 96.112 126.625 96.4717Z" fill="#FECF00"/>
<path d="M115.504 108.369C114.583 106.796 114.56 105.445 115.434 104.315C115.717 103.949 116.084 103.604 116.534 103.279L117.77 104.116C117.429 104.348 117.131 104.627 116.878 104.955C116.366 105.617 116.31 106.315 116.712 107.05L116.912 107.417L125.66 108.28L124.512 109.765L117.673 108.965L120.949 114.369L119.828 115.819L115.504 108.369Z" fill="#FECF00"/>
<path d="M109.723 107.973L110.87 106.95L113.643 109.673L112.716 110.499C113.326 112.641 115.009 115.065 117.764 117.77L112.788 122.203L106.504 116.033L105.522 116.907L102.749 114.184L103.897 113.162L105.573 114.808L111.399 109.619L109.723 107.973ZM115.422 117.784C113.186 115.3 111.828 113.278 111.348 111.718L107.762 114.912L112.939 119.996L115.422 117.784Z" fill="#FECF00"/>
<path d="M95.7542 120.795L97.208 119.944L100.791 125.299C101.076 125.725 101.28 126.038 101.403 126.24L102.003 117.138L103.368 116.339L109.12 124.936L107.666 125.787L104.091 120.444C103.801 120.011 103.594 119.693 103.471 119.491L102.871 128.593L101.506 129.392L95.7542 120.795Z" fill="#FECF00"/>
<path d="M88.4064 134.434L86.9641 134.92L83.2454 125.268L84.8417 124.73L87.4448 131.487L88.7758 125.866L89.728 125.545L94.5916 129.094L91.9832 122.323L93.5796 121.785L97.2983 131.438L95.856 131.924L90.0009 127.65L88.4064 134.434Z" fill="#FECF00"/>
<path d="M79.1913 136.34L74.8306 136.681C73.7307 136.767 72.8467 136.614 72.1787 136.221C71.5107 135.829 71.1386 135.206 71.0623 134.352C71.0097 133.763 71.1182 133.261 71.3876 132.845C71.6579 132.438 72.0221 132.143 72.4804 131.959C71.9066 131.846 71.4044 131.593 70.9739 131.202C70.5344 130.822 70.2822 130.268 70.2174 129.542C70.1683 128.993 70.2486 128.507 70.4582 128.086C70.6686 127.674 70.9714 127.354 71.3663 127.125C71.7613 126.897 72.166 126.722 72.5804 126.601C72.9859 126.49 73.4194 126.417 73.881 126.381L78.2711 126.038L79.1913 136.34ZM71.942 129.585C72.0358 130.635 72.7947 131.104 74.2188 130.993L77.0031 130.776L76.7232 127.641L74.1745 127.84C73.8308 127.867 73.5424 127.904 73.3093 127.952C73.0762 128 72.8413 128.082 72.6045 128.2C72.3579 128.318 72.1804 128.49 72.072 128.715C71.9547 128.952 71.9114 129.242 71.942 129.585ZM72.7476 133.954C72.8317 134.896 73.5416 135.314 74.8773 135.21L77.3817 135.014L77.1306 132.203L74.3892 132.403C73.8687 132.443 73.4569 132.594 73.1538 132.855C72.8409 133.116 72.7055 133.483 72.7476 133.954Z" fill="#FECF00"/>
<path d="M67.4016 126.634L69.1819 126.8L63.732 136.68L61.8928 136.509L58.6473 125.819L60.4129 125.983L61.0889 128.287L66.2532 128.768L67.4016 126.634ZM63.2456 134.409L65.523 130.184L61.521 129.811L62.8631 134.373C62.9186 134.596 62.962 134.793 62.9934 134.964C63.0601 134.802 63.1442 134.617 63.2456 134.409Z" fill="#FECF00"/>
<path d="M45.4388 122.025L57.9527 125.924L54.4825 135.668L52.8741 135.167L55.8189 126.898L51.9674 125.698L49.0226 133.967L47.4143 133.466L50.3591 125.197L46.5217 124.002L43.5769 132.271L41.9686 131.77L45.4388 122.025Z" fill="#FECF00"/>
<path d="M39.3327 118.836L40.738 119.765L34.5024 128.018L27.2538 123.227L33.4894 114.974L34.8948 115.903L29.5945 122.918L34.0324 125.851L39.3327 118.836Z" fill="#FECF00"/>
<path d="M23.7188 120.383L21.0517 117.827C18.9251 115.789 18.6985 114.007 20.372 112.479C22.0455 110.952 23.9456 111.207 26.0722 113.245L27.5231 114.636L30.1425 112.245L31.3587 113.41L23.7188 120.383ZM23.2022 113.17C22.6571 113.029 22.1262 113.194 21.6096 113.665C21.093 114.137 20.9072 114.626 21.0521 115.132C21.1827 115.639 21.5395 116.171 22.1227 116.73L23.6377 118.182L26.388 115.672L24.8731 114.22C24.2899 113.661 23.7329 113.311 23.2022 113.17Z" fill="#FECF00"/>
<path d="M21.4291 108.309C21.0271 108.828 20.5299 109.274 19.9374 109.645C19.3449 110.017 18.7156 110.278 18.0495 110.429C17.3777 110.572 16.7026 110.601 16.0244 110.516C15.3378 110.436 14.6627 110.186 13.9989 109.767C13.3268 109.353 12.7353 108.79 12.2242 108.078C11.7132 107.365 11.3832 106.644 11.2342 105.913C11.0711 105.18 11.0802 104.501 11.2615 103.876C11.4287 103.249 11.7133 102.676 12.1152 102.156C12.5115 101.629 13.0058 101.18 13.5983 100.808C14.1908 100.436 14.8229 100.179 15.4948 100.036C16.1609 99.885 16.8401 99.8534 17.5324 99.9414C18.2106 100.027 18.8858 100.276 19.5579 100.69C20.2159 101.101 20.8004 101.663 21.3115 102.376C21.8225 103.088 22.1595 103.811 22.3226 104.544C22.4774 105.283 22.4683 105.962 22.2953 106.581C22.1141 107.206 21.8253 107.782 21.4291 108.309ZM17.4439 101.564C16.4474 101.423 15.4986 101.635 14.5974 102.201C13.6962 102.766 13.1263 103.507 12.8878 104.423C12.6435 105.33 12.8688 106.269 13.5635 107.237C14.2526 108.198 15.0953 108.748 16.0918 108.889C17.0882 109.03 18.0371 108.818 18.9383 108.252C19.8395 107.687 20.4094 106.946 20.6479 106.031C20.8864 105.115 20.6612 104.177 19.9722 103.216C19.2774 102.248 18.4346 101.697 17.4439 101.564Z" fill="#FECF00"/>
<path d="M8.04484 101.18L5.04612 94.7197L6.47001 94.1416L8.75949 99.074L11.3745 98.0122L9.27168 93.4819L10.6956 92.9038L12.7984 97.4341L15.4956 96.339L13.1688 91.3262L14.5927 90.748L17.6287 97.2888L8.04484 101.18Z" fill="#FECF00"/>
<path d="M13.5692 87.7091L13.9896 89.3404L3.899 91.6148L3.47865 89.9835L7.68786 89.0348L7.17902 87.0601L2.25079 85.2185L1.77513 83.3726L7.54613 85.5844L11.7993 80.8406L12.275 82.6865L8.68523 86.6903L9.20145 88.6936L13.5692 87.7091Z" fill="#FECF00"/>
<path d="M2.48174 80.5071L1.89313 72.0012L3.44186 71.9075L3.6775 75.3128L12.4536 74.7816L12.5699 76.4621L3.7938 76.9933L4.03046 80.4133L2.48174 80.5071Z" fill="#FECF00"/>
</svg>
